<mxfile host="app.diagrams.net" agent="Mozilla/5.0 (Windows NT 10.0; Win64; x64; rv:138.0) Gecko/20100101 Firefox/138.0" version="27.0.8">
  <diagram name="Page-1" id="2shexAmg0uCzGfo-eTwR">
    <mxGraphModel dx="1965" dy="1158" grid="1" gridSize="10" guides="1" tooltips="1" connect="1" arrows="1" fold="1" page="1" pageScale="1" pageWidth="827" pageHeight="1169" math="0" shadow="0">
      <root>
        <mxCell id="0" />
        <mxCell id="1" parent="0" />
        <mxCell id="4dp0Owhgy0KjdALDriYX-6" value="Commande" style="shape=umlLifeline;perimeter=lifelinePerimeter;whiteSpace=wrap;html=1;container=1;dropTarget=0;collapsible=0;recursiveResize=0;outlineConnect=0;portConstraint=eastwest;newEdgeStyle={&quot;curved&quot;:0,&quot;rounded&quot;:0};" vertex="1" parent="1">
          <mxGeometry x="460" y="100" width="100" height="290" as="geometry" />
        </mxCell>
        <mxCell id="4dp0Owhgy0KjdALDriYX-14" value="" style="html=1;points=[[0,0,0,0,5],[0,1,0,0,-5],[1,0,0,0,5],[1,1,0,0,-5]];perimeter=orthogonalPerimeter;outlineConnect=0;targetShapes=umlLifeline;portConstraint=eastwest;newEdgeStyle={&quot;curved&quot;:0,&quot;rounded&quot;:0};" vertex="1" parent="4dp0Owhgy0KjdALDriYX-6">
          <mxGeometry x="45" y="180" width="10" height="40" as="geometry" />
        </mxCell>
        <mxCell id="4dp0Owhgy0KjdALDriYX-7" value="DetailCommande" style="shape=umlLifeline;perimeter=lifelinePerimeter;whiteSpace=wrap;html=1;container=1;dropTarget=0;collapsible=0;recursiveResize=0;outlineConnect=0;portConstraint=eastwest;newEdgeStyle={&quot;curved&quot;:0,&quot;rounded&quot;:0};" vertex="1" parent="1">
          <mxGeometry x="650" y="100" width="100" height="590" as="geometry" />
        </mxCell>
        <mxCell id="4dp0Owhgy0KjdALDriYX-48" value="" style="html=1;points=[[0,0,0,0,5],[0,1,0,0,-5],[1,0,0,0,5],[1,1,0,0,-5]];perimeter=orthogonalPerimeter;outlineConnect=0;targetShapes=umlLifeline;portConstraint=eastwest;newEdgeStyle={&quot;curved&quot;:0,&quot;rounded&quot;:0};" vertex="1" parent="4dp0Owhgy0KjdALDriYX-7">
          <mxGeometry x="45" y="485" width="10" height="40" as="geometry" />
        </mxCell>
        <mxCell id="4dp0Owhgy0KjdALDriYX-51" value="" style="html=1;points=[[0,0,0,0,5],[0,1,0,0,-5],[1,0,0,0,5],[1,1,0,0,-5]];perimeter=orthogonalPerimeter;outlineConnect=0;targetShapes=umlLifeline;portConstraint=eastwest;newEdgeStyle={&quot;curved&quot;:0,&quot;rounded&quot;:0};" vertex="1" parent="4dp0Owhgy0KjdALDriYX-7">
          <mxGeometry x="45" y="540" width="10" height="40" as="geometry" />
        </mxCell>
        <mxCell id="4dp0Owhgy0KjdALDriYX-8" value="Actor" style="shape=umlActor;verticalLabelPosition=bottom;verticalAlign=top;html=1;" vertex="1" parent="1">
          <mxGeometry x="120" y="80" width="30" height="60" as="geometry" />
        </mxCell>
        <mxCell id="4dp0Owhgy0KjdALDriYX-9" value="&lt;div&gt;&lt;br&gt;&lt;/div&gt;&lt;div&gt;&lt;br&gt;&lt;/div&gt;" style="shape=umlLifeline;perimeter=lifelinePerimeter;whiteSpace=wrap;html=1;container=1;dropTarget=0;collapsible=0;recursiveResize=0;outlineConnect=0;portConstraint=eastwest;newEdgeStyle={&quot;curved&quot;:0,&quot;rounded&quot;:0};size=0;" vertex="1" parent="1">
          <mxGeometry x="85" y="170" width="100" height="600" as="geometry" />
        </mxCell>
        <mxCell id="4dp0Owhgy0KjdALDriYX-11" value="faireFacture()" style="html=1;verticalAlign=bottom;startArrow=oval;endArrow=block;startSize=8;curved=0;rounded=0;entryX=0;entryY=0;entryDx=0;entryDy=5;" edge="1" target="4dp0Owhgy0KjdALDriYX-10" parent="1" source="4dp0Owhgy0KjdALDriYX-9">
          <mxGeometry relative="1" as="geometry">
            <mxPoint x="300" y="235" as="sourcePoint" />
          </mxGeometry>
        </mxCell>
        <mxCell id="4dp0Owhgy0KjdALDriYX-13" value="Pour tout les magasin" style="shape=umlFrame;whiteSpace=wrap;html=1;pointerEvents=0;width=90;height=35;" vertex="1" parent="1">
          <mxGeometry x="160" y="205" width="910" height="515" as="geometry" />
        </mxCell>
        <mxCell id="4dp0Owhgy0KjdALDriYX-15" value="getNumCom()" style="html=1;verticalAlign=bottom;endArrow=block;curved=0;rounded=0;entryX=0;entryY=0;entryDx=0;entryDy=5;" edge="1" target="4dp0Owhgy0KjdALDriYX-14" parent="1" source="4dp0Owhgy0KjdALDriYX-22">
          <mxGeometry relative="1" as="geometry">
            <mxPoint x="370" y="265" as="sourcePoint" />
          </mxGeometry>
        </mxCell>
        <mxCell id="4dp0Owhgy0KjdALDriYX-16" value="numCom" style="html=1;verticalAlign=bottom;endArrow=open;dashed=1;endSize=8;curved=0;rounded=0;exitX=0;exitY=1;exitDx=0;exitDy=-5;" edge="1" source="4dp0Owhgy0KjdALDriYX-14" parent="1" target="4dp0Owhgy0KjdALDriYX-22">
          <mxGeometry relative="1" as="geometry">
            <mxPoint x="370" y="295" as="targetPoint" />
          </mxGeometry>
        </mxCell>
        <mxCell id="4dp0Owhgy0KjdALDriYX-20" value="getDateCom()" style="html=1;verticalAlign=bottom;endArrow=block;curved=0;rounded=0;entryX=0;entryY=0;entryDx=0;entryDy=5;" edge="1" target="4dp0Owhgy0KjdALDriYX-19" parent="1" source="4dp0Owhgy0KjdALDriYX-22">
          <mxGeometry x="-0.0013" relative="1" as="geometry">
            <mxPoint x="565" y="335" as="sourcePoint" />
            <mxPoint as="offset" />
          </mxGeometry>
        </mxCell>
        <mxCell id="4dp0Owhgy0KjdALDriYX-21" value="dateCom" style="html=1;verticalAlign=bottom;endArrow=open;dashed=1;endSize=8;curved=0;rounded=0;exitX=0;exitY=1;exitDx=0;exitDy=-5;" edge="1" source="4dp0Owhgy0KjdALDriYX-19" parent="1" target="4dp0Owhgy0KjdALDriYX-22">
          <mxGeometry relative="1" as="geometry">
            <mxPoint x="565" y="405" as="targetPoint" />
          </mxGeometry>
        </mxCell>
        <mxCell id="4dp0Owhgy0KjdALDriYX-19" value="" style="html=1;points=[[0,0,0,0,5],[0,1,0,0,-5],[1,0,0,0,5],[1,1,0,0,-5]];perimeter=orthogonalPerimeter;outlineConnect=0;targetShapes=umlLifeline;portConstraint=eastwest;newEdgeStyle={&quot;curved&quot;:0,&quot;rounded&quot;:0};" vertex="1" parent="1">
          <mxGeometry x="505" y="340" width="10" height="40" as="geometry" />
        </mxCell>
        <mxCell id="4dp0Owhgy0KjdALDriYX-30" value="Pour toutes les commandes" style="shape=umlFrame;whiteSpace=wrap;html=1;pointerEvents=0;width=90;height=40;" vertex="1" parent="1">
          <mxGeometry x="170" y="260" width="870" height="450" as="geometry" />
        </mxCell>
        <mxCell id="4dp0Owhgy0KjdALDriYX-31" value="Pour tout les details commandes" style="shape=umlFrame;whiteSpace=wrap;html=1;pointerEvents=0;width=95;height=48;" vertex="1" parent="1">
          <mxGeometry x="185" y="392.5" width="825" height="307.5" as="geometry" />
        </mxCell>
        <mxCell id="4dp0Owhgy0KjdALDriYX-35" value="getIsbn()" style="html=1;verticalAlign=bottom;endArrow=block;curved=0;rounded=0;entryX=0;entryY=0;entryDx=0;entryDy=5;" edge="1" target="4dp0Owhgy0KjdALDriYX-34" parent="1">
          <mxGeometry relative="1" as="geometry">
            <mxPoint x="310" y="415" as="sourcePoint" />
          </mxGeometry>
        </mxCell>
        <mxCell id="4dp0Owhgy0KjdALDriYX-36" value="Isbn" style="html=1;verticalAlign=bottom;endArrow=open;dashed=1;endSize=8;curved=0;rounded=0;exitX=0;exitY=1;exitDx=0;exitDy=-5;" edge="1" source="4dp0Owhgy0KjdALDriYX-34" parent="1" target="4dp0Owhgy0KjdALDriYX-22">
          <mxGeometry relative="1" as="geometry">
            <mxPoint x="435" y="485" as="targetPoint" />
          </mxGeometry>
        </mxCell>
        <mxCell id="4dp0Owhgy0KjdALDriYX-39" value="getTitre()" style="html=1;verticalAlign=bottom;endArrow=block;curved=0;rounded=0;entryX=0;entryY=0;entryDx=0;entryDy=5;" edge="1" target="4dp0Owhgy0KjdALDriYX-38" parent="1" source="4dp0Owhgy0KjdALDriYX-22">
          <mxGeometry relative="1" as="geometry">
            <mxPoint x="625" y="470" as="sourcePoint" />
          </mxGeometry>
        </mxCell>
        <mxCell id="4dp0Owhgy0KjdALDriYX-40" value="Titre" style="html=1;verticalAlign=bottom;endArrow=open;dashed=1;endSize=8;curved=0;rounded=0;exitX=0;exitY=1;exitDx=0;exitDy=-5;" edge="1" source="4dp0Owhgy0KjdALDriYX-38" parent="1" target="4dp0Owhgy0KjdALDriYX-22">
          <mxGeometry relative="1" as="geometry">
            <mxPoint x="625" y="540" as="targetPoint" />
          </mxGeometry>
        </mxCell>
        <mxCell id="4dp0Owhgy0KjdALDriYX-41" value="Livre" style="shape=umlLifeline;perimeter=lifelinePerimeter;whiteSpace=wrap;html=1;container=1;dropTarget=0;collapsible=0;recursiveResize=0;outlineConnect=0;portConstraint=eastwest;newEdgeStyle={&quot;curved&quot;:0,&quot;rounded&quot;:0};" vertex="1" parent="1">
          <mxGeometry x="880" y="100" width="100" height="480" as="geometry" />
        </mxCell>
        <mxCell id="4dp0Owhgy0KjdALDriYX-34" value="" style="html=1;points=[[0,0,0,0,5],[0,1,0,0,-5],[1,0,0,0,5],[1,1,0,0,-5]];perimeter=orthogonalPerimeter;outlineConnect=0;targetShapes=umlLifeline;portConstraint=eastwest;newEdgeStyle={&quot;curved&quot;:0,&quot;rounded&quot;:0};" vertex="1" parent="4dp0Owhgy0KjdALDriYX-41">
          <mxGeometry x="45" y="310" width="10" height="40" as="geometry" />
        </mxCell>
        <mxCell id="4dp0Owhgy0KjdALDriYX-38" value="" style="html=1;points=[[0,0,0,0,5],[0,1,0,0,-5],[1,0,0,0,5],[1,1,0,0,-5]];perimeter=orthogonalPerimeter;outlineConnect=0;targetShapes=umlLifeline;portConstraint=eastwest;newEdgeStyle={&quot;curved&quot;:0,&quot;rounded&quot;:0};" vertex="1" parent="4dp0Owhgy0KjdALDriYX-41">
          <mxGeometry x="45" y="365" width="10" height="45" as="geometry" />
        </mxCell>
        <mxCell id="4dp0Owhgy0KjdALDriYX-45" value="" style="html=1;points=[[0,0,0,0,5],[0,1,0,0,-5],[1,0,0,0,5],[1,1,0,0,-5]];perimeter=orthogonalPerimeter;outlineConnect=0;targetShapes=umlLifeline;portConstraint=eastwest;newEdgeStyle={&quot;curved&quot;:0,&quot;rounded&quot;:0};" vertex="1" parent="4dp0Owhgy0KjdALDriYX-41">
          <mxGeometry x="45" y="430" width="10" height="40" as="geometry" />
        </mxCell>
        <mxCell id="4dp0Owhgy0KjdALDriYX-47" value="Prix" style="html=1;verticalAlign=bottom;endArrow=open;dashed=1;endSize=8;curved=0;rounded=0;exitX=0;exitY=1;exitDx=0;exitDy=-5;" edge="1" source="4dp0Owhgy0KjdALDriYX-45" parent="1" target="4dp0Owhgy0KjdALDriYX-22">
          <mxGeometry relative="1" as="geometry">
            <mxPoint x="855" y="605" as="targetPoint" />
          </mxGeometry>
        </mxCell>
        <mxCell id="4dp0Owhgy0KjdALDriYX-46" value="getPrix()" style="html=1;verticalAlign=bottom;endArrow=block;curved=0;rounded=0;entryX=0;entryY=0;entryDx=0;entryDy=5;" edge="1" target="4dp0Owhgy0KjdALDriYX-45" parent="1" source="4dp0Owhgy0KjdALDriYX-22">
          <mxGeometry relative="1" as="geometry">
            <mxPoint x="855" y="535" as="sourcePoint" />
          </mxGeometry>
        </mxCell>
        <mxCell id="4dp0Owhgy0KjdALDriYX-50" value="Qte" style="html=1;verticalAlign=bottom;endArrow=open;dashed=1;endSize=8;curved=0;rounded=0;exitX=0;exitY=1;exitDx=0;exitDy=-5;" edge="1" source="4dp0Owhgy0KjdALDriYX-48" parent="1" target="4dp0Owhgy0KjdALDriYX-22">
          <mxGeometry relative="1" as="geometry">
            <mxPoint x="855" y="655" as="targetPoint" />
          </mxGeometry>
        </mxCell>
        <mxCell id="4dp0Owhgy0KjdALDriYX-49" value="getQte()" style="html=1;verticalAlign=bottom;endArrow=block;curved=0;rounded=0;entryX=0;entryY=0;entryDx=0;entryDy=5;" edge="1" target="4dp0Owhgy0KjdALDriYX-48" parent="1" source="4dp0Owhgy0KjdALDriYX-22">
          <mxGeometry x="0.0005" relative="1" as="geometry">
            <mxPoint x="855" y="585" as="sourcePoint" />
            <mxPoint as="offset" />
          </mxGeometry>
        </mxCell>
        <mxCell id="4dp0Owhgy0KjdALDriYX-53" value="PrixVente" style="html=1;verticalAlign=bottom;endArrow=open;dashed=1;endSize=8;curved=0;rounded=0;exitX=0;exitY=1;exitDx=0;exitDy=-5;" edge="1" source="4dp0Owhgy0KjdALDriYX-51" parent="1" target="4dp0Owhgy0KjdALDriYX-22">
          <mxGeometry relative="1" as="geometry">
            <mxPoint x="625" y="705" as="targetPoint" />
          </mxGeometry>
        </mxCell>
        <mxCell id="4dp0Owhgy0KjdALDriYX-52" value="getPrixVente()" style="html=1;verticalAlign=bottom;endArrow=block;curved=0;rounded=0;entryX=0;entryY=0;entryDx=0;entryDy=5;" edge="1" target="4dp0Owhgy0KjdALDriYX-51" parent="1" source="4dp0Owhgy0KjdALDriYX-22">
          <mxGeometry relative="1" as="geometry">
            <mxPoint x="625" y="635" as="sourcePoint" />
          </mxGeometry>
        </mxCell>
        <mxCell id="4dp0Owhgy0KjdALDriYX-56" value="String" style="html=1;verticalAlign=bottom;endArrow=open;dashed=1;endSize=8;curved=0;rounded=0;" edge="1" parent="1">
          <mxGeometry relative="1" as="geometry">
            <mxPoint x="310" y="780" as="sourcePoint" />
            <mxPoint x="134.25" y="750" as="targetPoint" />
            <Array as="points">
              <mxPoint x="310" y="750" />
            </Array>
          </mxGeometry>
        </mxCell>
        <mxCell id="4dp0Owhgy0KjdALDriYX-22" value="Magasin" style="shape=umlLifeline;perimeter=lifelinePerimeter;whiteSpace=wrap;html=1;container=1;dropTarget=0;collapsible=0;recursiveResize=0;outlineConnect=0;portConstraint=eastwest;newEdgeStyle={&quot;curved&quot;:0,&quot;rounded&quot;:0};" vertex="1" parent="1">
          <mxGeometry x="260" y="100" width="100" height="680" as="geometry" />
        </mxCell>
        <mxCell id="4dp0Owhgy0KjdALDriYX-29" value="getNomMag()" style="html=1;align=left;spacingLeft=2;endArrow=block;rounded=0;edgeStyle=orthogonalEdgeStyle;curved=0;rounded=0;" edge="1" parent="4dp0Owhgy0KjdALDriYX-22">
          <mxGeometry relative="1" as="geometry">
            <mxPoint x="55" y="120" as="sourcePoint" />
            <Array as="points">
              <mxPoint x="85" y="120" />
              <mxPoint x="85" y="150" />
            </Array>
            <mxPoint x="60" y="150" as="targetPoint" />
          </mxGeometry>
        </mxCell>
        <mxCell id="4dp0Owhgy0KjdALDriYX-10" value="" style="html=1;points=[[0,0,0,0,5],[0,1,0,0,-5],[1,0,0,0,5],[1,1,0,0,-5]];perimeter=orthogonalPerimeter;outlineConnect=0;targetShapes=umlLifeline;portConstraint=eastwest;newEdgeStyle={&quot;curved&quot;:0,&quot;rounded&quot;:0};" vertex="1" parent="4dp0Owhgy0KjdALDriYX-22">
          <mxGeometry x="45" y="90" width="10" height="580" as="geometry" />
        </mxCell>
      </root>
    </mxGraphModel>
  </diagram>
</mxfile>
